<?xml version="1.0" encoding="UTF-8" standalone="no"?>
<svg width="43px" height="44px" viewBox="0 0 43 44" version="1.1" xmlns="http://www.w3.org/2000/svg" xmlns:xlink="http://www.w3.org/1999/xlink">
    <defs></defs>
    <g id="Page-1" stroke="none" stroke-width="1" fill="none" fill-rule="evenodd">
        <path d="M7.15497025,33.442558 L14.398,32.27 L14.398,29.77 L1.58,29.77 L0.606,30.74 L0.606,44 L3.106,44 L4.278,36.27 L4.28132921,36.2666837 C8.31677436,41.0007268 14.3191026,44 21.023,44 C33.173,44 43.023,34.15 43.023,22 C43.023,9.85 33.173,0 21.023,0 C13.508,0 6.876,3.77 2.908,9.52 L2.944,9.54 L3.266,10.92 L4.964,11.98 L6.311,11.66 C9.572,7.04 14.945,4 21.023,4 C30.949,4 39.023,12.08 39.023,22 C39.023,31.92 30.949,40 21.023,40 C15.4437157,40 10.4578363,37.4375695 7.15497025,33.442558 Z" id="Fill-182" fill="#fff"></path>
    </g>
</svg>